<svg width="195" height="55" viewBox="0 0 195 55" fill="none" xmlns="http://www.w3.org/2000/svg">
<path d="M1.12002 15.3201C1.12002 13.1601 1.06669 11.3867 0.960022 10.0001H5.76002C5.84002 10.8001 5.88002 11.6801 5.88002 12.6401H5.96002C6.62669 11.6801 7.49336 10.9334 8.56002 10.4001C9.62669 9.86674 10.8134 9.60007 12.12 9.60007C14.6534 9.60007 16.6534 10.5334 18.12 12.4001C19.5867 14.2667 20.32 16.8134 20.32 20.0401C20.32 23.2667 19.5734 25.8001 18.08 27.6401C16.6134 29.4801 14.5734 30.4001 11.96 30.4001C10.68 30.4001 9.54669 30.1867 8.56002 29.7601C7.57336 29.3334 6.84002 28.7334 6.36002 27.9601H6.24002V39.6801H1.12002V15.3201ZM10.84 26.6001C12.2534 26.6001 13.3334 26.0267 14.08 24.8801C14.8267 23.7067 15.2 22.0401 15.2 19.8801C15.2 15.6401 13.7734 13.5201 10.92 13.5201C9.53336 13.5201 8.40002 13.9334 7.52002 14.7601C6.66669 15.5601 6.24002 16.6267 6.24002 17.9601V22.0801C6.24002 23.3601 6.68002 24.4401 7.56002 25.3201C8.44002 26.1734 9.53336 26.6001 10.84 26.6001Z" fill="#2D2D2D"/>
<path d="M29.1372 30.4001C27.4305 30.4001 26.1239 29.9467 25.2172 29.0401C24.3372 28.1067 23.8972 26.7734 23.8972 25.0401V0.320068H28.9772V25.1201C28.9772 25.7067 29.1239 26.1467 29.4172 26.4401C29.7372 26.7067 30.2039 26.8401 30.8172 26.8401C31.4305 26.8401 32.1905 26.6667 33.0972 26.3201L33.8572 29.0401C32.6572 29.9467 31.0839 30.4001 29.1372 30.4001Z" fill="#2D2D2D"/>
<path d="M41.6885 30.4001C40.3818 30.4001 39.2085 30.1334 38.1685 29.6001C37.1285 29.0401 36.3151 28.2801 35.7285 27.3201C35.1418 26.3334 34.8485 25.2401 34.8485 24.0401C34.8485 21.9867 35.6618 20.4134 37.2885 19.3201C38.9151 18.2267 41.2351 17.6801 44.2485 17.6801H47.3685V16.8401C47.3685 15.7734 47.0485 14.9601 46.4085 14.4001C45.7951 13.8134 44.9151 13.5201 43.7685 13.5201C42.5685 13.5201 41.4218 13.7334 40.3285 14.1601C39.2351 14.5867 38.3418 15.1734 37.6485 15.9201L35.4085 12.9601C36.5018 11.9201 37.7951 11.1067 39.2885 10.5201C40.7818 9.90673 42.3285 9.60007 43.9285 9.60007C46.5951 9.60007 48.6885 10.2267 50.2085 11.4801C51.7285 12.7334 52.4885 14.4667 52.4885 16.6801V25.8001C52.4885 26.4134 52.5285 27.1334 52.6085 27.9601C52.7151 28.7867 52.8351 29.4667 52.9685 30.0001H48.4485C48.2885 29.6534 48.1685 29.3201 48.0885 29.0001C48.0085 28.6534 47.9418 28.1867 47.8885 27.6001H47.8085C46.2885 29.4667 44.2485 30.4001 41.6885 30.4001ZM42.9285 26.5601C44.2085 26.5601 45.2618 26.2401 46.0885 25.6001C46.9418 24.9334 47.3685 24.0934 47.3685 23.0801V21.0801H44.0885C42.7285 21.0801 41.6751 21.3334 40.9285 21.8401C40.2085 22.3467 39.8485 23.0801 39.8485 24.0401C39.8485 24.8401 40.1151 25.4667 40.6485 25.9201C41.2085 26.3467 41.9685 26.5601 42.9285 26.5601Z" fill="#2D2D2D"/>
<path d="M56.7003 15.2801C56.7003 12.8534 56.647 11.0934 56.5403 10.0001H61.3403C61.4737 11.1201 61.5403 12.2801 61.5403 13.4801H61.6603C62.1403 12.3067 62.9803 11.3734 64.1803 10.6801C65.407 9.96007 66.767 9.60007 68.2603 9.60007C70.5537 9.60007 72.287 10.3734 73.4603 11.9201C74.6337 13.4667 75.2203 15.7467 75.2203 18.7601V30.0001H70.1403V18.7201C70.1403 16.9867 69.8603 15.7201 69.3003 14.9201C68.7403 14.1201 67.847 13.7201 66.6203 13.7201C65.207 13.7201 64.047 14.2267 63.1403 15.2401C62.2603 16.2267 61.8203 17.5067 61.8203 19.0801V30.0001H56.7003V15.2801Z" fill="#2D2D2D"/>
<path d="M87.9994 30.4001C85.9461 30.4001 84.3461 29.8401 83.1994 28.7201C82.0527 27.6001 81.4794 26.0267 81.4794 24.0001V13.8001H77.8394V10.0001H81.4794V4.84007L86.4394 3.40007H86.5994V10.0001H92.3994V13.8001H86.5994V23.2401C86.5994 24.3867 86.8661 25.2267 87.3994 25.7601C87.9327 26.2934 88.7461 26.5601 89.8394 26.5601C90.8794 26.5601 91.8527 26.4001 92.7594 26.0801L92.9994 29.5601C91.7994 30.1201 90.1327 30.4001 87.9994 30.4001Z" fill="#2D2D2D"/>
<path d="M114.532 30.4001C111.439 30.4001 108.999 29.4801 107.212 27.6401C105.452 25.7734 104.572 23.2267 104.572 20.0001C104.572 16.7467 105.452 14.2001 107.212 12.3601C108.999 10.5201 111.439 9.60007 114.532 9.60007C116.399 9.60007 118.026 9.94674 119.412 10.6401C120.799 11.3334 121.866 12.3201 122.612 13.6001L119.532 16.2801C119.026 15.4001 118.346 14.7201 117.492 14.2401C116.666 13.7601 115.759 13.5201 114.772 13.5201C113.172 13.5201 111.919 14.0934 111.012 15.2401C110.106 16.3867 109.652 17.9734 109.652 20.0001C109.652 22.0267 110.106 23.6134 111.012 24.7601C111.919 25.9067 113.172 26.4801 114.772 26.4801C115.759 26.4801 116.666 26.2401 117.492 25.7601C118.319 25.2534 118.999 24.5734 119.532 23.7201L122.612 26.4001C121.866 27.6801 120.799 28.6667 119.412 29.3601C118.026 30.0534 116.399 30.4001 114.532 30.4001Z" fill="#00A896"/>
<path d="M142.86 10.0001L135.22 30.9201C134.393 33.1601 133.246 34.8401 131.78 35.9601C130.34 37.1067 128.606 37.6801 126.58 37.6801C125.513 37.6801 124.42 37.5334 123.3 37.2401V33.2001C123.62 33.3067 124.02 33.4001 124.5 33.4801C124.98 33.5601 125.406 33.6001 125.78 33.6001C126.953 33.6001 127.953 33.1867 128.78 32.3601C129.633 31.5601 130.393 30.2801 131.06 28.5201L123.62 10.0001H129.06L133.46 22.8001L137.42 10.0001H142.86Z" fill="#00A896"/>
<path d="M154.415 30.4001C151.322 30.4001 148.882 29.4801 147.095 27.6401C145.335 25.7734 144.455 23.2267 144.455 20.0001C144.455 16.7467 145.335 14.2001 147.095 12.3601C148.882 10.5201 151.322 9.60007 154.415 9.60007C156.282 9.60007 157.908 9.94674 159.295 10.6401C160.682 11.3334 161.748 12.3201 162.495 13.6001L159.415 16.2801C158.908 15.4001 158.228 14.7201 157.375 14.2401C156.548 13.7601 155.642 13.5201 154.655 13.5201C153.055 13.5201 151.802 14.0934 150.895 15.2401C149.988 16.3867 149.535 17.9734 149.535 20.0001C149.535 22.0267 149.988 23.6134 150.895 24.7601C151.802 25.9067 153.055 26.4801 154.655 26.4801C155.642 26.4801 156.548 26.2401 157.375 25.7601C158.202 25.2534 158.882 24.5734 159.415 23.7201L162.495 26.4001C161.748 27.6801 160.682 28.6667 159.295 29.3601C157.908 30.0534 156.282 30.4001 154.415 30.4001Z" fill="#00A896"/>
<path d="M170.583 30.4001C168.876 30.4001 167.569 29.9467 166.663 29.0401C165.783 28.1067 165.343 26.7734 165.343 25.0401V0.320068H170.423V25.1201C170.423 25.7067 170.569 26.1467 170.863 26.4401C171.183 26.7067 171.649 26.8401 172.263 26.8401C172.876 26.8401 173.636 26.6667 174.543 26.3201L175.303 29.0401C174.103 29.9467 172.529 30.4001 170.583 30.4001Z" fill="#00A896"/>
<path d="M194.323 21.8801H180.403C180.829 24.7067 182.469 26.1201 185.323 26.1201C186.496 26.1201 187.51 25.9201 188.363 25.5201C189.243 25.1201 190.096 24.4534 190.923 23.5201L193.683 26.1601C192.909 27.4401 191.736 28.4667 190.163 29.2401C188.616 30.0134 186.909 30.4001 185.043 30.4001C181.923 30.4001 179.496 29.4934 177.763 27.6801C176.029 25.8401 175.163 23.3067 175.163 20.0801C175.163 16.8267 176.029 14.2667 177.763 12.4001C179.523 10.5334 181.936 9.60007 185.003 9.60007C187.936 9.60007 190.216 10.5201 191.843 12.3601C193.496 14.2001 194.323 16.7601 194.323 20.0401V21.8801ZM189.323 18.1601C189.323 16.8001 188.923 15.7334 188.123 14.9601C187.35 14.1601 186.269 13.7601 184.883 13.7601C183.629 13.7601 182.616 14.1734 181.843 15.0001C181.07 15.8001 180.576 16.9334 180.363 18.4001H189.323V18.1601Z" fill="#00A896"/>
<path fill-rule="evenodd" clip-rule="evenodd" d="M113 34.5C114.381 34.5 115.5 35.6193 115.5 37C115.5 43.6847 121.538 49.5 129.5 49.5C137.462 49.5 143.5 43.6847 143.5 37C143.5 35.6193 144.619 34.5 146 34.5C147.381 34.5 148.5 35.6193 148.5 37C148.5 46.8839 139.764 54.5 129.5 54.5C119.236 54.5 110.5 46.8839 110.5 37C110.5 35.6193 111.619 34.5 113 34.5Z" fill="#00A896"/>
</svg>
