<svg width="88" height="41" viewBox="0 0 88 41" fill="none" xmlns="http://www.w3.org/2000/svg">
<path d="M14.1747 11.0024C16.3988 7.10698 14.6424 2.14521 10.4629 0.516602V0.516602L14.7033 2.79291C18.3061 4.72694 21.0317 7.96699 22.3204 11.8477L26.4181 24.1874C29.0765 32.1929 21.5064 39.8224 13.4803 37.2266V37.2266C7.26493 35.2164 4.46941 28.0002 7.70843 22.3273L14.1747 11.0024Z" fill="white"/>
<path fill-rule="evenodd" clip-rule="evenodd" d="M24.52 24.8177L20.4223 12.478C19.7458 10.4406 18.6165 8.605 17.1405 7.09697C17.1893 8.74756 16.8001 10.4377 15.9115 11.994L9.44526 23.319C6.83551 27.8897 9.08792 33.704 14.0958 35.3236C20.5625 37.4152 26.662 31.2679 24.52 24.8177ZM14.8105 5.18119C15.3906 7.04618 15.2349 9.14544 14.1747 11.0024L7.70843 22.3273C4.46941 28.0002 7.26493 35.2164 13.4803 37.2266C21.5064 39.8224 29.0765 32.1929 26.4181 24.1874L22.3204 11.8477C21.2528 8.6326 19.1988 5.85724 16.4769 3.89998C15.9134 3.49477 15.3213 3.12463 14.7033 2.79291L12.0462 1.36653C11.567 1.02778 11.0379 0.740649 10.4629 0.516602L12.0462 1.36653C12.9464 2.00291 13.6705 2.82148 14.1915 3.7463C14.4482 4.20185 14.6556 4.68316 14.8105 5.18119Z" fill="white"/>
<path d="M41.1747 11.0024C43.3988 7.10698 41.6424 2.14521 37.4629 0.516602V0.516602L41.7033 2.79291C45.3061 4.72694 48.0317 7.96699 49.3204 11.8477L53.4181 24.1874C56.0765 32.1929 48.5064 39.8224 40.4803 37.2266V37.2266C34.2649 35.2164 31.4694 28.0002 34.7084 22.3273L41.1747 11.0024Z" fill="white"/>
<path fill-rule="evenodd" clip-rule="evenodd" d="M51.52 24.8177L47.4223 12.478C46.7458 10.4406 45.6165 8.605 44.1405 7.09697C44.1893 8.74756 43.8001 10.4377 42.9115 11.994L36.4453 23.319C33.8355 27.8897 36.0879 33.704 41.0958 35.3236C47.5625 37.4152 53.662 31.2679 51.52 24.8177ZM41.8105 5.18119C42.3906 7.04618 42.2349 9.14544 41.1747 11.0024L34.7084 22.3273C31.4694 28.0002 34.2649 35.2164 40.4803 37.2266C48.5064 39.8224 56.0765 32.1929 53.4181 24.1874L49.3204 11.8477C48.2528 8.6326 46.1988 5.85724 43.4769 3.89998C42.9134 3.49477 42.3213 3.12463 41.7033 2.79291L39.0462 1.36653C38.567 1.02778 38.0379 0.740649 37.4629 0.516602L39.0462 1.36653C39.9464 2.00291 40.6705 2.82148 41.1915 3.7463C41.4482 4.20185 41.6556 4.68316 41.8105 5.18119Z" fill="white"/>
<path d="M68.1747 11.0024C70.3988 7.10698 68.6424 2.14521 64.4629 0.516602V0.516602L68.7033 2.79291C72.3061 4.72694 75.0317 7.96699 76.3204 11.8477L80.4181 24.1874C83.0765 32.1929 75.5064 39.8224 67.4803 37.2266V37.2266C61.2649 35.2164 58.4694 28.0002 61.7084 22.3273L68.1747 11.0024Z" fill="white"/>
<path fill-rule="evenodd" clip-rule="evenodd" d="M78.52 24.8177L74.4223 12.478C73.7458 10.4406 72.6165 8.605 71.1405 7.09697C71.1893 8.74756 70.8001 10.4377 69.9115 11.994L63.4453 23.319C60.8355 27.8897 63.0879 33.704 68.0958 35.3236C74.5625 37.4152 80.662 31.2679 78.52 24.8177ZM68.8105 5.18119C69.3906 7.04618 69.2349 9.14544 68.1747 11.0024L61.7084 22.3273C58.4694 28.0002 61.2649 35.2164 67.4803 37.2266C75.5064 39.8224 83.0765 32.1929 80.4181 24.1874L76.3204 11.8477C75.2528 8.6326 73.1988 5.85724 70.4769 3.89998C69.9134 3.49477 69.3213 3.12463 68.7033 2.79291L66.0462 1.36653C65.567 1.02778 65.0379 0.740649 64.4629 0.516602L66.0462 1.36653C66.9464 2.00291 67.6705 2.82148 68.1915 3.7463C68.4482 4.20185 68.6556 4.68316 68.8105 5.18119Z" fill="white"/>
</svg>
