<svg width="82" height="82" viewBox="0 0 82 82" fill="none" xmlns="http://www.w3.org/2000/svg">
<path d="M18.2325 29.2437C18.2325 25.6377 19.3018 22.1126 21.3052 19.1143C23.3086 16.116 26.1562 13.7791 29.4877 12.3991C32.8193 11.0191 36.4852 10.6581 40.022 11.3616C43.5587 12.0651 46.8075 13.8016 49.3573 16.3514C51.9072 18.9013 53.6437 22.15 54.3472 25.6868C55.0507 29.2235 54.6896 32.8895 53.3096 36.221C51.9297 39.5526 49.5928 42.4001 46.5944 44.4035C43.5961 46.4069 40.071 47.4762 36.465 47.4762H16.4092C13.0244 47.4762 9.7781 46.1316 7.38462 43.7381C4.99114 41.3446 3.6465 38.0984 3.6465 34.7135C3.6465 31.3286 4.99114 28.0823 7.38462 25.6889C9.7781 23.2954 13.0244 21.9507 16.4092 21.9507C17.4771 21.9503 18.5409 22.0804 19.5771 22.3382" stroke="white" stroke-width="5" stroke-linecap="round" stroke-linejoin="round"/>
</svg>
