<svg width="82" height="82" viewBox="0 0 82 82" fill="none" xmlns="http://www.w3.org/2000/svg">
<path d="M24.6139 41.3963C24.6139 37.6345 25.7294 33.9572 27.8193 30.8294C29.9092 27.7017 32.8797 25.2638 36.3551 23.8243C39.8305 22.3847 43.6548 22.0081 47.3443 22.7419C51.0338 23.4758 54.4228 25.2873 57.0827 27.9472C59.7427 30.6072 61.5542 33.9962 62.288 37.6857C63.0219 41.3752 62.6453 45.1994 61.2057 48.6749C59.7661 52.1503 57.3283 55.1208 54.2005 57.2107C51.0727 59.3006 47.3955 60.4161 43.6337 60.4161H21.2574C17.9934 60.4161 14.8631 59.1195 12.5551 56.8115C10.2471 54.5035 8.9505 51.3732 8.9505 48.1092C8.9505 44.8452 10.2471 41.7148 12.5551 39.4068C14.8631 37.0988 17.9934 35.8022 21.2574 35.8022C22.6193 35.7952 23.9722 36.0223 25.2572 36.4735" stroke="white" stroke-width="5" stroke-linecap="round" stroke-linejoin="round"/>
<path d="M22.2923 15.8598L21.1176 9.25879" stroke="white" stroke-width="5" stroke-linecap="round" stroke-linejoin="round"/>
<path d="M13.6215 21.397L8.11139 17.5371" stroke="white" stroke-width="5" stroke-linecap="round" stroke-linejoin="round"/>
<path d="M11.3839 31.4111L4.78295 32.5859" stroke="white" stroke-width="5" stroke-linecap="round" stroke-linejoin="round"/>
<path d="M32.3057 18.0966L36.1656 12.5864" stroke="white" stroke-width="5" stroke-linecap="round" stroke-linejoin="round"/>
<path d="M14.4327 37.8715C12.8642 36.0245 11.8124 33.7953 11.3839 31.4104C10.8157 28.1842 11.4466 24.8616 13.1578 22.0682C14.869 19.2749 17.5424 17.2036 20.6746 16.2443C23.8069 15.285 27.1817 15.504 30.1637 16.8601C33.1457 18.2161 35.529 20.6156 36.8649 23.6066" stroke="white" stroke-width="5" stroke-linecap="round" stroke-linejoin="round"/>
</svg>
